<?xml version="1.0" encoding="utf-8" standalone="no"?>
<!DOCTYPE svg PUBLIC "-//W3C//DTD SVG 1.1//EN"
  "http://www.w3.org/Graphics/SVG/1.1/DTD/svg11.dtd">
<svg xmlns:xlink="http://www.w3.org/1999/xlink" width="720pt" height="432pt" viewBox="0 0 720 432" xmlns="http://www.w3.org/2000/svg" version="1.1">
 <metadata>
  <rdf:RDF xmlns:dc="http://purl.org/dc/elements/1.1/" xmlns:cc="http://creativecommons.org/ns#" xmlns:rdf="http://www.w3.org/1999/02/22-rdf-syntax-ns#">
   <cc:Work>
    <dc:type rdf:resource="http://purl.org/dc/dcmitype/StillImage"/>
    <dc:date>2025-04-28T08:55:23.313802</dc:date>
    <dc:format>image/svg+xml</dc:format>
    <dc:creator>
     <cc:Agent>
      <dc:title>Matplotlib v3.10.0, https://matplotlib.org/</dc:title>
     </cc:Agent>
    </dc:creator>
   </cc:Work>
  </rdf:RDF>
 </metadata>
 <defs>
  <style type="text/css">*{stroke-linejoin: round; stroke-linecap: butt}</style>
 </defs>
 <g id="figure_1">
  <g id="patch_1">
   <path d="M 0 432 
L 720 432 
L 720 0 
L 0 0 
z
" style="fill: #ffffff"/>
  </g>
  <g id="axes_1">
   <g id="LineCollection_1">
    <path d="M 300.456702 298.733043 
L 324.766116 239.173955 
" clip-path="url(#pe7dd4ce221)" style="fill: none; stroke: #000000; stroke-opacity: 0.5; stroke-width: 0.5"/>
    <path d="M 300.456702 298.733043 
L 236.025029 237.694295 
" clip-path="url(#pe7dd4ce221)" style="fill: none; stroke: #000000; stroke-opacity: 0.5; stroke-width: 0.5"/>
    <path d="M 324.766116 239.173955 
L 236.025029 237.694295 
" clip-path="url(#pe7dd4ce221)" style="fill: none; stroke: #000000; stroke-opacity: 0.5; stroke-width: 0.5"/>
    <path d="M 236.025029 237.694295 
L 128.363823 193.751711 
" clip-path="url(#pe7dd4ce221)" style="fill: none; stroke: #000000; stroke-opacity: 0.5; stroke-width: 0.5"/>
    <path d="M 128.363823 193.751711 
L 40.633884 192.486982 
" clip-path="url(#pe7dd4ce221)" style="fill: none; stroke: #000000; stroke-opacity: 0.5; stroke-width: 0.5"/>
    <path d="M 128.363823 193.751711 
L 64.804909 133.266957 
" clip-path="url(#pe7dd4ce221)" style="fill: none; stroke: #000000; stroke-opacity: 0.5; stroke-width: 0.5"/>
    <path d="M 40.633884 192.486982 
L 64.804909 133.266957 
" clip-path="url(#pe7dd4ce221)" style="fill: none; stroke: #000000; stroke-opacity: 0.5; stroke-width: 0.5"/>
   </g>
   <g id="patch_2">
    <path d="M 300.456702 305.845928 
C 302.343061 305.845928 304.152414 305.09647 305.486271 303.762612 
C 306.820128 302.428755 307.569587 300.619402 307.569587 298.733043 
C 307.569587 296.846684 306.820128 295.037331 305.486271 293.703473 
C 304.152414 292.369616 302.343061 291.620158 300.456702 291.620158 
C 298.570342 291.620158 296.76099 292.369616 295.427132 293.703473 
C 294.093275 295.037331 293.343816 296.846684 293.343816 298.733043 
C 293.343816 300.619402 294.093275 302.428755 295.427132 303.762612 
C 296.76099 305.09647 298.570342 305.845928 300.456702 305.845928 
z
" clip-path="url(#pe7dd4ce221)" style="fill: #bfb100; stroke: #000000; stroke-width: 0.2; stroke-linejoin: miter"/>
   </g>
   <g id="patch_3">
    <path d="M 324.766116 246.286841 
C 326.652475 246.286841 328.461828 245.537382 329.795685 244.203525 
C 331.129543 242.869667 331.879001 241.060315 331.879001 239.173955 
C 331.879001 237.287596 331.129543 235.478243 329.795685 234.144386 
C 328.461828 232.810529 326.652475 232.06107 324.766116 232.06107 
C 322.879756 232.06107 321.070404 232.810529 319.736546 234.144386 
C 318.402689 235.478243 317.65323 237.287596 317.65323 239.173955 
C 317.65323 241.060315 318.402689 242.869667 319.736546 244.203525 
C 321.070404 245.537382 322.879756 246.286841 324.766116 246.286841 
z
" clip-path="url(#pe7dd4ce221)" style="fill: #bfb100; stroke: #000000; stroke-width: 0.2; stroke-linejoin: miter"/>
   </g>
   <g id="patch_4">
    <path d="M 243.137914 237.694295 
C 243.137914 235.808564 242.388012 233.998139 241.054599 232.664726 
C 239.721185 231.331313 237.91076 230.58141 236.025029 230.58141 
C 234.139298 230.58141 232.328873 231.331313 230.99546 232.664726 
C 229.662047 233.998139 228.912144 235.808564 228.912144 237.694295 
L 236.025029 237.694295 
z
" clip-path="url(#pe7dd4ce221)" style="fill: #bfb100; stroke: #000000; stroke-width: 0.2; stroke-linejoin: miter"/>
   </g>
   <g id="patch_5">
    <path d="M 228.912144 237.694295 
C 228.912144 239.580026 229.662047 241.390452 230.99546 242.723865 
C 232.328873 244.057278 234.139298 244.807181 236.025029 244.807181 
C 237.91076 244.807181 239.721185 244.057278 241.054599 242.723865 
C 242.388012 241.390452 243.137914 239.580026 243.137914 237.694295 
L 236.025029 237.694295 
z
" clip-path="url(#pe7dd4ce221)" style="fill: #3d66ef; stroke: #000000; stroke-width: 0.2; stroke-linejoin: miter"/>
   </g>
   <g id="patch_6">
    <path d="M 128.363823 200.864596 
C 130.250182 200.864596 132.059535 200.115138 133.393392 198.781281 
C 134.727249 197.447423 135.476708 195.63807 135.476708 193.751711 
C 135.476708 191.865352 134.727249 190.055999 133.393392 188.722142 
C 132.059535 187.388284 130.250182 186.638826 128.363823 186.638826 
C 126.477463 186.638826 124.668111 187.388284 123.334253 188.722142 
C 122.000396 190.055999 121.250937 191.865352 121.250937 193.751711 
C 121.250937 195.63807 122.000396 197.447423 123.334253 198.781281 
C 124.668111 200.115138 126.477463 200.864596 128.363823 200.864596 
z
" clip-path="url(#pe7dd4ce221)" style="fill: #3d66ef; stroke: #000000; stroke-width: 0.2; stroke-linejoin: miter"/>
   </g>
   <g id="patch_7">
    <path d="M 40.633884 199.599868 
C 42.520244 199.599868 44.329596 198.850409 45.663454 197.516552 
C 46.997311 196.182694 47.74677 194.373342 47.74677 192.486982 
C 47.74677 190.600623 46.997311 188.79127 45.663454 187.457413 
C 44.329596 186.123555 42.520244 185.374097 40.633884 185.374097 
C 38.747525 185.374097 36.938172 186.123555 35.604315 187.457413 
C 34.270457 188.79127 33.520999 190.600623 33.520999 192.486982 
C 33.520999 194.373342 34.270457 196.182694 35.604315 197.516552 
C 36.938172 198.850409 38.747525 199.599868 40.633884 199.599868 
z
" clip-path="url(#pe7dd4ce221)" style="fill: #3d66ef; stroke: #000000; stroke-width: 0.2; stroke-linejoin: miter"/>
   </g>
   <g id="patch_8">
    <path d="M 64.804909 140.379842 
C 66.691268 140.379842 68.500621 139.630384 69.834478 138.296527 
C 71.168335 136.962669 71.917794 135.153316 71.917794 133.266957 
C 71.917794 131.380598 71.168335 129.571245 69.834478 128.237388 
C 68.500621 126.90353 66.691268 126.154072 64.804909 126.154072 
C 62.918549 126.154072 61.109197 126.90353 59.775339 128.237388 
C 58.441482 129.571245 57.692023 131.380598 57.692023 133.266957 
C 57.692023 135.153316 58.441482 136.962669 59.775339 138.296527 
C 61.109197 139.630384 62.918549 140.379842 64.804909 140.379842 
z
" clip-path="url(#pe7dd4ce221)" style="fill: #3d66ef; stroke: #000000; stroke-width: 0.2; stroke-linejoin: miter"/>
   </g>
   <g id="text_1">
    <!-- Ground Truth Communities -->
    <g transform="translate(101.95875 109.893018) scale(0.12 -0.12)">
     <defs>
      <path id="DejaVuSans-47" d="M 3809 666 
L 3809 1919 
L 2778 1919 
L 2778 2438 
L 4434 2438 
L 4434 434 
Q 4069 175 3628 42 
Q 3188 -91 2688 -91 
Q 1594 -91 976 548 
Q 359 1188 359 2328 
Q 359 3472 976 4111 
Q 1594 4750 2688 4750 
Q 3144 4750 3555 4637 
Q 3966 4525 4313 4306 
L 4313 3634 
Q 3963 3931 3569 4081 
Q 3175 4231 2741 4231 
Q 1884 4231 1454 3753 
Q 1025 3275 1025 2328 
Q 1025 1384 1454 906 
Q 1884 428 2741 428 
Q 3075 428 3337 486 
Q 3600 544 3809 666 
z
" transform="scale(0.015625)"/>
      <path id="DejaVuSans-72" d="M 2631 2963 
Q 2534 3019 2420 3045 
Q 2306 3072 2169 3072 
Q 1681 3072 1420 2755 
Q 1159 2438 1159 1844 
L 1159 0 
L 581 0 
L 581 3500 
L 1159 3500 
L 1159 2956 
Q 1341 3275 1631 3429 
Q 1922 3584 2338 3584 
Q 2397 3584 2469 3576 
Q 2541 3569 2628 3553 
L 2631 2963 
z
" transform="scale(0.015625)"/>
      <path id="DejaVuSans-6f" d="M 1959 3097 
Q 1497 3097 1228 2736 
Q 959 2375 959 1747 
Q 959 1119 1226 758 
Q 1494 397 1959 397 
Q 2419 397 2687 759 
Q 2956 1122 2956 1747 
Q 2956 2369 2687 2733 
Q 2419 3097 1959 3097 
z
M 1959 3584 
Q 2709 3584 3137 3096 
Q 3566 2609 3566 1747 
Q 3566 888 3137 398 
Q 2709 -91 1959 -91 
Q 1206 -91 779 398 
Q 353 888 353 1747 
Q 353 2609 779 3096 
Q 1206 3584 1959 3584 
z
" transform="scale(0.015625)"/>
      <path id="DejaVuSans-75" d="M 544 1381 
L 544 3500 
L 1119 3500 
L 1119 1403 
Q 1119 906 1312 657 
Q 1506 409 1894 409 
Q 2359 409 2629 706 
Q 2900 1003 2900 1516 
L 2900 3500 
L 3475 3500 
L 3475 0 
L 2900 0 
L 2900 538 
Q 2691 219 2414 64 
Q 2138 -91 1772 -91 
Q 1169 -91 856 284 
Q 544 659 544 1381 
z
M 1991 3584 
L 1991 3584 
z
" transform="scale(0.015625)"/>
      <path id="DejaVuSans-6e" d="M 3513 2113 
L 3513 0 
L 2938 0 
L 2938 2094 
Q 2938 2591 2744 2837 
Q 2550 3084 2163 3084 
Q 1697 3084 1428 2787 
Q 1159 2491 1159 1978 
L 1159 0 
L 581 0 
L 581 3500 
L 1159 3500 
L 1159 2956 
Q 1366 3272 1645 3428 
Q 1925 3584 2291 3584 
Q 2894 3584 3203 3211 
Q 3513 2838 3513 2113 
z
" transform="scale(0.015625)"/>
      <path id="DejaVuSans-64" d="M 2906 2969 
L 2906 4863 
L 3481 4863 
L 3481 0 
L 2906 0 
L 2906 525 
Q 2725 213 2448 61 
Q 2172 -91 1784 -91 
Q 1150 -91 751 415 
Q 353 922 353 1747 
Q 353 2572 751 3078 
Q 1150 3584 1784 3584 
Q 2172 3584 2448 3432 
Q 2725 3281 2906 2969 
z
M 947 1747 
Q 947 1113 1208 752 
Q 1469 391 1925 391 
Q 2381 391 2643 752 
Q 2906 1113 2906 1747 
Q 2906 2381 2643 2742 
Q 2381 3103 1925 3103 
Q 1469 3103 1208 2742 
Q 947 2381 947 1747 
z
" transform="scale(0.015625)"/>
      <path id="DejaVuSans-20" transform="scale(0.015625)"/>
      <path id="DejaVuSans-54" d="M -19 4666 
L 3928 4666 
L 3928 4134 
L 2272 4134 
L 2272 0 
L 1638 0 
L 1638 4134 
L -19 4134 
L -19 4666 
z
" transform="scale(0.015625)"/>
      <path id="DejaVuSans-74" d="M 1172 4494 
L 1172 3500 
L 2356 3500 
L 2356 3053 
L 1172 3053 
L 1172 1153 
Q 1172 725 1289 603 
Q 1406 481 1766 481 
L 2356 481 
L 2356 0 
L 1766 0 
Q 1100 0 847 248 
Q 594 497 594 1153 
L 594 3053 
L 172 3053 
L 172 3500 
L 594 3500 
L 594 4494 
L 1172 4494 
z
" transform="scale(0.015625)"/>
      <path id="DejaVuSans-68" d="M 3513 2113 
L 3513 0 
L 2938 0 
L 2938 2094 
Q 2938 2591 2744 2837 
Q 2550 3084 2163 3084 
Q 1697 3084 1428 2787 
Q 1159 2491 1159 1978 
L 1159 0 
L 581 0 
L 581 4863 
L 1159 4863 
L 1159 2956 
Q 1366 3272 1645 3428 
Q 1925 3584 2291 3584 
Q 2894 3584 3203 3211 
Q 3513 2838 3513 2113 
z
" transform="scale(0.015625)"/>
      <path id="DejaVuSans-43" d="M 4122 4306 
L 4122 3641 
Q 3803 3938 3442 4084 
Q 3081 4231 2675 4231 
Q 1875 4231 1450 3742 
Q 1025 3253 1025 2328 
Q 1025 1406 1450 917 
Q 1875 428 2675 428 
Q 3081 428 3442 575 
Q 3803 722 4122 1019 
L 4122 359 
Q 3791 134 3420 21 
Q 3050 -91 2638 -91 
Q 1578 -91 968 557 
Q 359 1206 359 2328 
Q 359 3453 968 4101 
Q 1578 4750 2638 4750 
Q 3056 4750 3426 4639 
Q 3797 4528 4122 4306 
z
" transform="scale(0.015625)"/>
      <path id="DejaVuSans-6d" d="M 3328 2828 
Q 3544 3216 3844 3400 
Q 4144 3584 4550 3584 
Q 5097 3584 5394 3201 
Q 5691 2819 5691 2113 
L 5691 0 
L 5113 0 
L 5113 2094 
Q 5113 2597 4934 2840 
Q 4756 3084 4391 3084 
Q 3944 3084 3684 2787 
Q 3425 2491 3425 1978 
L 3425 0 
L 2847 0 
L 2847 2094 
Q 2847 2600 2669 2842 
Q 2491 3084 2119 3084 
Q 1678 3084 1418 2786 
Q 1159 2488 1159 1978 
L 1159 0 
L 581 0 
L 581 3500 
L 1159 3500 
L 1159 2956 
Q 1356 3278 1631 3431 
Q 1906 3584 2284 3584 
Q 2666 3584 2933 3390 
Q 3200 3197 3328 2828 
z
" transform="scale(0.015625)"/>
      <path id="DejaVuSans-69" d="M 603 3500 
L 1178 3500 
L 1178 0 
L 603 0 
L 603 3500 
z
M 603 4863 
L 1178 4863 
L 1178 4134 
L 603 4134 
L 603 4863 
z
" transform="scale(0.015625)"/>
      <path id="DejaVuSans-65" d="M 3597 1894 
L 3597 1613 
L 953 1613 
Q 991 1019 1311 708 
Q 1631 397 2203 397 
Q 2534 397 2845 478 
Q 3156 559 3463 722 
L 3463 178 
Q 3153 47 2828 -22 
Q 2503 -91 2169 -91 
Q 1331 -91 842 396 
Q 353 884 353 1716 
Q 353 2575 817 3079 
Q 1281 3584 2069 3584 
Q 2775 3584 3186 3129 
Q 3597 2675 3597 1894 
z
M 3022 2063 
Q 3016 2534 2758 2815 
Q 2500 3097 2075 3097 
Q 1594 3097 1305 2825 
Q 1016 2553 972 2059 
L 3022 2063 
z
" transform="scale(0.015625)"/>
      <path id="DejaVuSans-73" d="M 2834 3397 
L 2834 2853 
Q 2591 2978 2328 3040 
Q 2066 3103 1784 3103 
Q 1356 3103 1142 2972 
Q 928 2841 928 2578 
Q 928 2378 1081 2264 
Q 1234 2150 1697 2047 
L 1894 2003 
Q 2506 1872 2764 1633 
Q 3022 1394 3022 966 
Q 3022 478 2636 193 
Q 2250 -91 1575 -91 
Q 1294 -91 989 -36 
Q 684 19 347 128 
L 347 722 
Q 666 556 975 473 
Q 1284 391 1588 391 
Q 1994 391 2212 530 
Q 2431 669 2431 922 
Q 2431 1156 2273 1281 
Q 2116 1406 1581 1522 
L 1381 1569 
Q 847 1681 609 1914 
Q 372 2147 372 2553 
Q 372 3047 722 3315 
Q 1072 3584 1716 3584 
Q 2034 3584 2315 3537 
Q 2597 3491 2834 3397 
z
" transform="scale(0.015625)"/>
     </defs>
     <use xlink:href="#DejaVuSans-47"/>
     <use xlink:href="#DejaVuSans-72" transform="translate(77.490234 0)"/>
     <use xlink:href="#DejaVuSans-6f" transform="translate(116.353516 0)"/>
     <use xlink:href="#DejaVuSans-75" transform="translate(177.535156 0)"/>
     <use xlink:href="#DejaVuSans-6e" transform="translate(240.914062 0)"/>
     <use xlink:href="#DejaVuSans-64" transform="translate(304.292969 0)"/>
     <use xlink:href="#DejaVuSans-20" transform="translate(367.769531 0)"/>
     <use xlink:href="#DejaVuSans-54" transform="translate(399.556641 0)"/>
     <use xlink:href="#DejaVuSans-72" transform="translate(445.890625 0)"/>
     <use xlink:href="#DejaVuSans-75" transform="translate(487.003906 0)"/>
     <use xlink:href="#DejaVuSans-74" transform="translate(550.382812 0)"/>
     <use xlink:href="#DejaVuSans-68" transform="translate(589.591797 0)"/>
     <use xlink:href="#DejaVuSans-20" transform="translate(652.970703 0)"/>
     <use xlink:href="#DejaVuSans-43" transform="translate(684.757812 0)"/>
     <use xlink:href="#DejaVuSans-6f" transform="translate(754.582031 0)"/>
     <use xlink:href="#DejaVuSans-6d" transform="translate(815.763672 0)"/>
     <use xlink:href="#DejaVuSans-6d" transform="translate(913.175781 0)"/>
     <use xlink:href="#DejaVuSans-75" transform="translate(1010.587891 0)"/>
     <use xlink:href="#DejaVuSans-6e" transform="translate(1073.966797 0)"/>
     <use xlink:href="#DejaVuSans-69" transform="translate(1137.345703 0)"/>
     <use xlink:href="#DejaVuSans-74" transform="translate(1165.128906 0)"/>
     <use xlink:href="#DejaVuSans-69" transform="translate(1204.337891 0)"/>
     <use xlink:href="#DejaVuSans-65" transform="translate(1232.121094 0)"/>
     <use xlink:href="#DejaVuSans-73" transform="translate(1293.644531 0)"/>
    </g>
   </g>
   <g id="text_2">
    <!-- 1 -->
    <g transform="translate(298.547952 292.564494) scale(0.06 -0.06)">
     <defs>
      <path id="DejaVuSans-31" d="M 794 531 
L 1825 531 
L 1825 4091 
L 703 3866 
L 703 4441 
L 1819 4666 
L 2450 4666 
L 2450 531 
L 3481 531 
L 3481 0 
L 794 0 
L 794 531 
z
" transform="scale(0.015625)"/>
     </defs>
     <use xlink:href="#DejaVuSans-31"/>
    </g>
   </g>
   <g id="text_3">
    <!-- 2 -->
    <g transform="translate(322.857366 233.005407) scale(0.06 -0.06)">
     <defs>
      <path id="DejaVuSans-32" d="M 1228 531 
L 3431 531 
L 3431 0 
L 469 0 
L 469 531 
Q 828 903 1448 1529 
Q 2069 2156 2228 2338 
Q 2531 2678 2651 2914 
Q 2772 3150 2772 3378 
Q 2772 3750 2511 3984 
Q 2250 4219 1831 4219 
Q 1534 4219 1204 4116 
Q 875 4013 500 3803 
L 500 4441 
Q 881 4594 1212 4672 
Q 1544 4750 1819 4750 
Q 2544 4750 2975 4387 
Q 3406 4025 3406 3419 
Q 3406 3131 3298 2873 
Q 3191 2616 2906 2266 
Q 2828 2175 2409 1742 
Q 1991 1309 1228 531 
z
" transform="scale(0.015625)"/>
     </defs>
     <use xlink:href="#DejaVuSans-32"/>
    </g>
   </g>
   <g id="text_4">
    <!-- 3 -->
    <g transform="translate(234.116279 231.525747) scale(0.06 -0.06)">
     <defs>
      <path id="DejaVuSans-33" d="M 2597 2516 
Q 3050 2419 3304 2112 
Q 3559 1806 3559 1356 
Q 3559 666 3084 287 
Q 2609 -91 1734 -91 
Q 1441 -91 1130 -33 
Q 819 25 488 141 
L 488 750 
Q 750 597 1062 519 
Q 1375 441 1716 441 
Q 2309 441 2620 675 
Q 2931 909 2931 1356 
Q 2931 1769 2642 2001 
Q 2353 2234 1838 2234 
L 1294 2234 
L 1294 2753 
L 1863 2753 
Q 2328 2753 2575 2939 
Q 2822 3125 2822 3475 
Q 2822 3834 2567 4026 
Q 2313 4219 1838 4219 
Q 1578 4219 1281 4162 
Q 984 4106 628 3988 
L 628 4550 
Q 988 4650 1302 4700 
Q 1616 4750 1894 4750 
Q 2613 4750 3031 4423 
Q 3450 4097 3450 3541 
Q 3450 3153 3228 2886 
Q 3006 2619 2597 2516 
z
" transform="scale(0.015625)"/>
     </defs>
     <use xlink:href="#DejaVuSans-33"/>
    </g>
   </g>
   <g id="text_5">
    <!-- 4 -->
    <g transform="translate(126.455073 187.583162) scale(0.06 -0.06)">
     <defs>
      <path id="DejaVuSans-34" d="M 2419 4116 
L 825 1625 
L 2419 1625 
L 2419 4116 
z
M 2253 4666 
L 3047 4666 
L 3047 1625 
L 3713 1625 
L 3713 1100 
L 3047 1100 
L 3047 0 
L 2419 0 
L 2419 1100 
L 313 1100 
L 313 1709 
L 2253 4666 
z
" transform="scale(0.015625)"/>
     </defs>
     <use xlink:href="#DejaVuSans-34"/>
    </g>
   </g>
   <g id="text_6">
    <!-- 5 -->
    <g transform="translate(38.725134 186.318433) scale(0.06 -0.06)">
     <defs>
      <path id="DejaVuSans-35" d="M 691 4666 
L 3169 4666 
L 3169 4134 
L 1269 4134 
L 1269 2991 
Q 1406 3038 1543 3061 
Q 1681 3084 1819 3084 
Q 2600 3084 3056 2656 
Q 3513 2228 3513 1497 
Q 3513 744 3044 326 
Q 2575 -91 1722 -91 
Q 1428 -91 1123 -41 
Q 819 9 494 109 
L 494 744 
Q 775 591 1075 516 
Q 1375 441 1709 441 
Q 2250 441 2565 725 
Q 2881 1009 2881 1497 
Q 2881 1984 2565 2268 
Q 2250 2553 1709 2553 
Q 1456 2553 1204 2497 
Q 953 2441 691 2322 
L 691 4666 
z
" transform="scale(0.015625)"/>
     </defs>
     <use xlink:href="#DejaVuSans-35"/>
    </g>
   </g>
   <g id="text_7">
    <!-- 6 -->
    <g transform="translate(62.896159 127.098408) scale(0.06 -0.06)">
     <defs>
      <path id="DejaVuSans-36" d="M 2113 2584 
Q 1688 2584 1439 2293 
Q 1191 2003 1191 1497 
Q 1191 994 1439 701 
Q 1688 409 2113 409 
Q 2538 409 2786 701 
Q 3034 994 3034 1497 
Q 3034 2003 2786 2293 
Q 2538 2584 2113 2584 
z
M 3366 4563 
L 3366 3988 
Q 3128 4100 2886 4159 
Q 2644 4219 2406 4219 
Q 1781 4219 1451 3797 
Q 1122 3375 1075 2522 
Q 1259 2794 1537 2939 
Q 1816 3084 2150 3084 
Q 2853 3084 3261 2657 
Q 3669 2231 3669 1497 
Q 3669 778 3244 343 
Q 2819 -91 2113 -91 
Q 1303 -91 875 529 
Q 447 1150 447 2328 
Q 447 3434 972 4092 
Q 1497 4750 2381 4750 
Q 2619 4750 2861 4703 
Q 3103 4656 3366 4563 
z
" transform="scale(0.015625)"/>
     </defs>
     <use xlink:href="#DejaVuSans-36"/>
    </g>
   </g>
  </g>
  <g id="axes_2">
   <g id="LineCollection_2">
    <path d="M 655.056702 298.733043 
L 679.366116 239.173955 
" clip-path="url(#p00701eea9d)" style="fill: none; stroke: #000000; stroke-opacity: 0.5; stroke-width: 0.5"/>
    <path d="M 655.056702 298.733043 
L 590.625029 237.694295 
" clip-path="url(#p00701eea9d)" style="fill: none; stroke: #000000; stroke-opacity: 0.5; stroke-width: 0.5"/>
    <path d="M 679.366116 239.173955 
L 590.625029 237.694295 
" clip-path="url(#p00701eea9d)" style="fill: none; stroke: #000000; stroke-opacity: 0.5; stroke-width: 0.5"/>
    <path d="M 590.625029 237.694295 
L 482.963823 193.751711 
" clip-path="url(#p00701eea9d)" style="fill: none; stroke: #000000; stroke-opacity: 0.5; stroke-width: 0.5"/>
    <path d="M 482.963823 193.751711 
L 395.233884 192.486982 
" clip-path="url(#p00701eea9d)" style="fill: none; stroke: #000000; stroke-opacity: 0.5; stroke-width: 0.5"/>
    <path d="M 482.963823 193.751711 
L 419.404909 133.266957 
" clip-path="url(#p00701eea9d)" style="fill: none; stroke: #000000; stroke-opacity: 0.5; stroke-width: 0.5"/>
    <path d="M 395.233884 192.486982 
L 419.404909 133.266957 
" clip-path="url(#p00701eea9d)" style="fill: none; stroke: #000000; stroke-opacity: 0.5; stroke-width: 0.5"/>
   </g>
   <g id="patch_9">
    <path d="M 655.056702 305.845928 
C 656.943061 305.845928 658.752414 305.09647 660.086271 303.762612 
C 661.420128 302.428755 662.169587 300.619402 662.169587 298.733043 
C 662.169587 296.846684 661.420128 295.037331 660.086271 293.703473 
C 658.752414 292.369616 656.943061 291.620158 655.056702 291.620158 
C 653.170342 291.620158 651.36099 292.369616 650.027132 293.703473 
C 648.693275 295.037331 647.943816 296.846684 647.943816 298.733043 
C 647.943816 300.619402 648.693275 302.428755 650.027132 303.762612 
C 651.36099 305.09647 653.170342 305.845928 655.056702 305.845928 
z
" clip-path="url(#p00701eea9d)" style="fill: #bfb100; stroke: #000000; stroke-width: 0.2; stroke-linejoin: miter"/>
   </g>
   <g id="patch_10">
    <path d="M 679.366116 246.286841 
C 681.252475 246.286841 683.061828 245.537382 684.395685 244.203525 
C 685.729543 242.869667 686.479001 241.060315 686.479001 239.173955 
C 686.479001 237.287596 685.729543 235.478243 684.395685 234.144386 
C 683.061828 232.810529 681.252475 232.06107 679.366116 232.06107 
C 677.479756 232.06107 675.670404 232.810529 674.336546 234.144386 
C 673.002689 235.478243 672.25323 237.287596 672.25323 239.173955 
C 672.25323 241.060315 673.002689 242.869667 674.336546 244.203525 
C 675.670404 245.537382 677.479756 246.286841 679.366116 246.286841 
z
" clip-path="url(#p00701eea9d)" style="fill: #bfb100; stroke: #000000; stroke-width: 0.2; stroke-linejoin: miter"/>
   </g>
   <g id="patch_11">
    <path d="M 590.625029 244.807181 
C 592.511388 244.807181 594.320741 244.057722 595.654599 242.723865 
C 596.988456 241.390007 597.737914 239.580655 597.737914 237.694295 
C 597.737914 235.807936 596.988456 233.998583 595.654599 232.664726 
C 594.320741 231.330869 592.511388 230.58141 590.625029 230.58141 
C 588.73867 230.58141 586.929317 231.330869 585.59546 232.664726 
C 584.261602 233.998583 583.512144 235.807936 583.512144 237.694295 
C 583.512144 239.580655 584.261602 241.390007 585.59546 242.723865 
C 586.929317 244.057722 588.73867 244.807181 590.625029 244.807181 
z
" clip-path="url(#p00701eea9d)" style="fill: #bfb100; stroke: #000000; stroke-width: 0.2; stroke-linejoin: miter"/>
   </g>
   <g id="patch_12">
    <path d="M 482.963823 200.864596 
C 484.850182 200.864596 486.659535 200.115138 487.993392 198.781281 
C 489.327249 197.447423 490.076708 195.63807 490.076708 193.751711 
C 490.076708 191.865352 489.327249 190.055999 487.993392 188.722142 
C 486.659535 187.388284 484.850182 186.638826 482.963823 186.638826 
C 481.077463 186.638826 479.268111 187.388284 477.934253 188.722142 
C 476.600396 190.055999 475.850937 191.865352 475.850937 193.751711 
C 475.850937 195.63807 476.600396 197.447423 477.934253 198.781281 
C 479.268111 200.115138 481.077463 200.864596 482.963823 200.864596 
z
" clip-path="url(#p00701eea9d)" style="fill: #bfb100; stroke: #000000; stroke-width: 0.2; stroke-linejoin: miter"/>
   </g>
   <g id="patch_13">
    <path d="M 395.233884 199.599868 
C 397.120244 199.599868 398.929596 198.850409 400.263454 197.516552 
C 401.597311 196.182694 402.34677 194.373342 402.34677 192.486982 
C 402.34677 190.600623 401.597311 188.79127 400.263454 187.457413 
C 398.929596 186.123555 397.120244 185.374097 395.233884 185.374097 
C 393.347525 185.374097 391.538172 186.123555 390.204315 187.457413 
C 388.870457 188.79127 388.120999 190.600623 388.120999 192.486982 
C 388.120999 194.373342 388.870457 196.182694 390.204315 197.516552 
C 391.538172 198.850409 393.347525 199.599868 395.233884 199.599868 
z
" clip-path="url(#p00701eea9d)" style="fill: #bfb100; stroke: #000000; stroke-width: 0.2; stroke-linejoin: miter"/>
   </g>
   <g id="patch_14">
    <path d="M 419.404909 140.379842 
C 421.291268 140.379842 423.100621 139.630384 424.434478 138.296527 
C 425.768335 136.962669 426.517794 135.153316 426.517794 133.266957 
C 426.517794 131.380598 425.768335 129.571245 424.434478 128.237388 
C 423.100621 126.90353 421.291268 126.154072 419.404909 126.154072 
C 417.518549 126.154072 415.709197 126.90353 414.375339 128.237388 
C 413.041482 129.571245 412.292023 131.380598 412.292023 133.266957 
C 412.292023 135.153316 413.041482 136.962669 414.375339 138.296527 
C 415.709197 139.630384 417.518549 140.379842 419.404909 140.379842 
z
" clip-path="url(#p00701eea9d)" style="fill: #bfb100; stroke: #000000; stroke-width: 0.2; stroke-linejoin: miter"/>
   </g>
   <g id="text_8">
    <!-- Detected Communities -->
    <g transform="translate(468.226875 109.893018) scale(0.12 -0.12)">
     <defs>
      <path id="DejaVuSans-44" d="M 1259 4147 
L 1259 519 
L 2022 519 
Q 2988 519 3436 956 
Q 3884 1394 3884 2338 
Q 3884 3275 3436 3711 
Q 2988 4147 2022 4147 
L 1259 4147 
z
M 628 4666 
L 1925 4666 
Q 3281 4666 3915 4102 
Q 4550 3538 4550 2338 
Q 4550 1131 3912 565 
Q 3275 0 1925 0 
L 628 0 
L 628 4666 
z
" transform="scale(0.015625)"/>
      <path id="DejaVuSans-63" d="M 3122 3366 
L 3122 2828 
Q 2878 2963 2633 3030 
Q 2388 3097 2138 3097 
Q 1578 3097 1268 2742 
Q 959 2388 959 1747 
Q 959 1106 1268 751 
Q 1578 397 2138 397 
Q 2388 397 2633 464 
Q 2878 531 3122 666 
L 3122 134 
Q 2881 22 2623 -34 
Q 2366 -91 2075 -91 
Q 1284 -91 818 406 
Q 353 903 353 1747 
Q 353 2603 823 3093 
Q 1294 3584 2113 3584 
Q 2378 3584 2631 3529 
Q 2884 3475 3122 3366 
z
" transform="scale(0.015625)"/>
     </defs>
     <use xlink:href="#DejaVuSans-44"/>
     <use xlink:href="#DejaVuSans-65" transform="translate(77.001953 0)"/>
     <use xlink:href="#DejaVuSans-74" transform="translate(138.525391 0)"/>
     <use xlink:href="#DejaVuSans-65" transform="translate(177.734375 0)"/>
     <use xlink:href="#DejaVuSans-63" transform="translate(239.257812 0)"/>
     <use xlink:href="#DejaVuSans-74" transform="translate(294.238281 0)"/>
     <use xlink:href="#DejaVuSans-65" transform="translate(333.447266 0)"/>
     <use xlink:href="#DejaVuSans-64" transform="translate(394.970703 0)"/>
     <use xlink:href="#DejaVuSans-20" transform="translate(458.447266 0)"/>
     <use xlink:href="#DejaVuSans-43" transform="translate(490.234375 0)"/>
     <use xlink:href="#DejaVuSans-6f" transform="translate(560.058594 0)"/>
     <use xlink:href="#DejaVuSans-6d" transform="translate(621.240234 0)"/>
     <use xlink:href="#DejaVuSans-6d" transform="translate(718.652344 0)"/>
     <use xlink:href="#DejaVuSans-75" transform="translate(816.064453 0)"/>
     <use xlink:href="#DejaVuSans-6e" transform="translate(879.443359 0)"/>
     <use xlink:href="#DejaVuSans-69" transform="translate(942.822266 0)"/>
     <use xlink:href="#DejaVuSans-74" transform="translate(970.605469 0)"/>
     <use xlink:href="#DejaVuSans-69" transform="translate(1009.814453 0)"/>
     <use xlink:href="#DejaVuSans-65" transform="translate(1037.597656 0)"/>
     <use xlink:href="#DejaVuSans-73" transform="translate(1099.121094 0)"/>
    </g>
   </g>
   <g id="text_9">
    <!-- 1 -->
    <g transform="translate(653.147952 292.564494) scale(0.06 -0.06)">
     <use xlink:href="#DejaVuSans-31"/>
    </g>
   </g>
   <g id="text_10">
    <!-- 2 -->
    <g transform="translate(677.457366 233.005407) scale(0.06 -0.06)">
     <use xlink:href="#DejaVuSans-32"/>
    </g>
   </g>
   <g id="text_11">
    <!-- 3 -->
    <g transform="translate(588.716279 231.525747) scale(0.06 -0.06)">
     <use xlink:href="#DejaVuSans-33"/>
    </g>
   </g>
   <g id="text_12">
    <!-- 4 -->
    <g transform="translate(481.055073 187.583162) scale(0.06 -0.06)">
     <use xlink:href="#DejaVuSans-34"/>
    </g>
   </g>
   <g id="text_13">
    <!-- 5 -->
    <g transform="translate(393.325134 186.318433) scale(0.06 -0.06)">
     <use xlink:href="#DejaVuSans-35"/>
    </g>
   </g>
   <g id="text_14">
    <!-- 6 -->
    <g transform="translate(417.496159 127.098408) scale(0.06 -0.06)">
     <use xlink:href="#DejaVuSans-36"/>
    </g>
   </g>
  </g>
 </g>
 <defs>
  <clipPath id="pe7dd4ce221">
   <rect x="10.8" y="115.893018" width="343.8" height="200.213964"/>
  </clipPath>
  <clipPath id="p00701eea9d">
   <rect x="365.4" y="115.893018" width="343.8" height="200.213964"/>
  </clipPath>
 </defs>
</svg>
